<svg width="117" height="117" viewBox="0 0 117 117" fill="none" xmlns="http://www.w3.org/2000/svg">
<rect width="117" height="117" rx="20" fill="white"/>
<path d="M57.3328 50.3H44.2328V95H31.6328V50.3H22.9328V44.3L31.6328 40.7V37C31.6328 30.0667 33.2661 25.2667 36.5328 22.6C39.8661 19.8667 44.3995 18.5 50.1328 18.5C52.7328 18.5 55.0995 18.7333 57.2328 19.2C59.4328 19.6 61.2328 20.0667 62.6328 20.6L59.4328 30C58.2995 29.6667 57.0328 29.3667 55.6328 29.1C54.2995 28.7667 52.8328 28.6 51.2328 28.6C48.8328 28.6 47.0661 29.3667 45.9328 30.9C44.7995 32.3667 44.2328 34.5 44.2328 37.3V40.8H57.3328V50.3Z" fill="#302E2E"/>
<path d="M85.3422 85.9C86.8755 85.9 88.3755 85.7667 89.8422 85.5C91.3755 85.1667 92.7755 84.8 94.0422 84.4V93.8C92.7089 94.4 90.9755 94.9 88.8422 95.3C86.7089 95.7667 84.4755 96 82.1422 96C79.0755 96 76.2755 95.5 73.7422 94.5C71.2089 93.4333 69.2089 91.6333 67.7422 89.1C66.2755 86.5667 65.5422 83.0333 65.5422 78.5V50.3H58.2422V44.8L66.2422 40.4L70.2422 28.9H78.1422V40.8H93.5422V50.3H78.1422V78.4C78.1422 80.9333 78.8089 82.8333 80.1422 84.1C81.4755 85.3 83.2089 85.9 85.3422 85.9Z" fill="#FF3951"/>
</svg>
