<?xml version="1.0" standalone="no"?>
<!DOCTYPE svg PUBLIC "-//W3C//DTD SVG 20010904//EN"
 "http://www.w3.org/TR/2001/REC-SVG-20010904/DTD/svg10.dtd">
<svg version="1.0" xmlns="http://www.w3.org/2000/svg"
 width="700.000000pt" height="700.000000pt" viewBox="0 0 700.000000 700.000000"
 preserveAspectRatio="xMidYMid meet">
<metadata>
Created by potrace 1.11, written by Peter Selinger 2001-2013
</metadata>
<g transform="translate(0.000000,700.000000) scale(0.100000,-0.100000)"
fill="#000000" stroke="none">
<path d="M2957 5894 c-1 -1 -45 -4 -97 -8 -295 -19 -533 -108 -699 -261 -137
-125 -225 -331 -256 -595 -6 -50 -15 -294 -15 -415 l0 -50 -202 -84 c-112 -46
-221 -91 -243 -101 -22 -9 -48 -20 -57 -23 -16 -6 -18 -24 -18 -187 l0 -180
260 0 c241 0 260 -1 261 -17 0 -10 0 -611 0 -1335 0 -1024 2 -1318 12 -1319
44 -4 737 -3 738 1 1 3 3 604 4 1335 l1 1330 392 3 392 2 0 285 0 285 -392 2
-392 3 0 115 c-2 297 43 439 172 537 68 51 137 68 277 67 109 -1 153 -7 346
-49 9 -2 34 -8 55 -14 22 -6 44 -11 50 -11 9 0 84 194 99 255 1 6 5 17 8 25 3
8 26 74 50 146 l45 131 -62 21 c-66 22 -260 66 -341 78 -27 3 -59 8 -70 11
-32 6 -312 21 -318 17z"/>
<path d="M4200 5267 c0 -2 -20 -62 -45 -133 -25 -71 -69 -196 -97 -279 -29
-82 -61 -177 -73 -210 l-22 -60 -239 -132 -239 -132 0 -166 0 -165 217 0 c168
0 218 -3 218 -12 0 -7 2 -436 4 -953 1 -517 5 -949 8 -960 3 -11 9 -42 12 -70
17 -121 72 -270 133 -363 122 -186 304 -301 548 -348 22 -4 47 -9 55 -10 100
-20 345 -20 505 0 115 15 321 66 396 98 l46 19 0 280 c-1 249 -2 279 -16 274
-69 -21 -260 -66 -312 -72 -82 -9 -263 -10 -312 0 -54 10 -143 54 -184 90 -62
55 -107 145 -120 240 -4 28 -7 441 -7 917 l-1 865 461 3 460 2 0 285 0 285
-461 0 -460 0 0 355 0 355 -237 0 c-131 0 -238 -1 -238 -3z"/>
</g>
</svg>
